<svg width="902.567" height="748.955" xmlns="http://www.w3.org/2000/svg">
 <defs>
  <linearGradient id="linear-gradient" x1="0.505" y1="1.007" x2="0.505" gradientUnits="objectBoundingBox">
   <stop offset="0" stop-color="gray" stop-opacity="0.251"/>
   <stop offset="0.54" stop-color="gray" stop-opacity="0.122"/>
   <stop offset="1" stop-color="gray" stop-opacity="0.102"/>
  </linearGradient>
 </defs>
 <g>
  <title>background</title>
  <rect x="-1" y="-1" width="904.567" height="750.955" id="canvas_background" fill="none"/>
 </g>
 <g>
  <title>Layer 1</title>
  <g id="Group_22">
   <g id="Group_2">
    <rect id="Rectangle_76" width="10.994" height="90.604" rx="2.29" fill="#1f1f1f" y="169.558" x="636.09497"/>
    <rect id="Rectangle_80" width="367.778" height="747.455" rx="38.99" fill="#1f1f1f" x="274.24799"/>
    <path id="Path_176" d="m590.83698,19.46899l-42.188,0l0,5.075a24.047,24.047 0 0 1 -24.06,24.047l-134.169,0a24.047,24.047 0 0 1 -24.06,-24.047l0,-5.075l-39.5,0a29.209,29.209 0 0 0 -29.209,29.209l0,650.15a29.209,29.209 0 0 0 29.209,29.209l263.977,0a29.209,29.209 0 0 0 29.209,-29.209l0,-650.1a29.209,29.209 0 0 0 -29.209,-29.259z" fill="#fff"/>
    <rect id="Rectangle_81" width="51.357" height="10.423" rx="3.87" fill="#eae5e5" y="22.322" x="422.66199" stroke="null"/>
    <circle id="Ellipse_5" cx="487.70599" cy="27.534" r="5.919" fill="#eae5e5" stroke="null"/>
    <circle id="Ellipse_11" cx="460.38298" cy="382.90399" r="69.573" fill="#fff"/>
    <path id="Path_222" d="m551.891,373.189a92.987,92.987 0 1 1 -92.984,-92.99a92.987,92.987 0 0 1 92.984,92.99zm-103.733,49.22l68.977,-68.977a5.993,5.993 0 0 0 0,-8.487l-8.487,-8.425a5.981,5.981 0 0 0 -8.475,0l-56.258,56.259l-26.268,-26.33a6.018,6.018 0 0 0 -8.487,0l-8.487,8.537a6.018,6.018 0 0 0 0,8.487l39,38.986a5.993,5.993 0 0 0 8.487,0l-0.002,-0.05z" fill="#b91c1c"/>
   </g>
   <g id="Group_1">
    <rect id="Rectangle_77" width="5.543" height="26.813" rx="2.29" fill="#3f3d56" y="147.357" x="282.51001"/>
    <rect id="Rectangle_78" width="6.246" height="46.666" rx="2.29" fill="#3f3d56" y="196.454" x="282.30901"/>
    <rect id="Rectangle_79" width="5.945" height="47.067" rx="2.29" fill="#3f3d56" y="259.44901" x="282.40901"/>
    <path id="Path_190" d="m208.74101,383.91a1.026,1.026 0 0 0 1.216,0.156a4.305,4.305 0 0 1 -1.216,-0.156z" fill="url(#linear-gradient)"/>
    <path id="Path_192" d="m254.70401,401.88901l-1.2,6.536l-0.926,5l-1.684,9.146l-16.329,11.432s-1.472,-1.26 -3.9,-3.246c-6.692,-5.51 -20.757,-16.73 -31.085,-22.753a34.786,34.786 0 0 0 -8.544,-3.937l63.668,-2.178z" fill="#feb9b9"/>
    <path id="Path_194" d="m242.72501,408.08533s19.039,3.268 20.154,-4.863s-9.8,-12.525 -19.05,-13.072s-64.768,3.268 -64.768,3.268s-9.793,13.061 25.575,15.247l38.089,-0.58z" fill="#1f1f1f"/>
    <rect id="Rectangle_82" width="99.6" height="118.104" fill="#1f1f1f" y="138.445" x="184.761"/>
    <rect id="Rectangle_83" width="99.6" height="118.104" opacity="0.1" y="132.31433" x="183.42767"/>
    <path id="Path_198" d="m68.03001,340.62299c-1.64,0.413 -3.736,2 -6.067,4.294c-10.038,9.938 -24.415,33.26 -24.415,33.26c-18.381,-21.895 1.959,-39.194 10.629,-45.139c2.108,-1.439 3.524,-2.231 3.524,-2.231l16.329,9.816z" fill="#feb9b9"/>
    <path id="Path_199" d="m253.61101,175.72s4.9,34.286 21.771,42.45s-21.771,23.422 -21.771,23.422l-52.789,-19.608s29.936,-9.8 23.946,-38.647l28.843,-7.617z" fill="#feb9b9"/>
    <path id="Path_200" d="m197.00801,381.99101l-1.194,6.514l-0.97,5.019l-1.684,9.146l-16.329,11.421s-1.472,-1.249 -3.9,-3.234c-6.692,-5.51 -20.756,-16.73 -31.1,-22.753a34.572,34.572 0 0 0 -8.544,-3.937l63.721,-2.176z" fill="#feb9b9"/>
    <path id="Path_202" d="m182.883,390.024s17.087,0.121 18.115,-8.033s-9.312,-12.525 -18.115,-13.072s-62.289,3.522 -62.289,3.522s-7.588,15.4 26.055,17.582l36.234,0.001z" fill="#1f1f1f"/>
    <path id="Path_204" d="m302.686,518.11901c-0.747,-0.368 -1.495,-0.747 -2.231,-1.115l-2.008,-2.532l-26.333,-33.393l0,0.58c-0.178,5.577 -2.074,49.767 -16.864,53.849c-15.782,4.35 -34.821,5.443 -43.5,-23.946s-24.537,-93.611 -40.822,-97.425l24.225,-19.864s16.039,18.76 22.574,36.717c-0.245,-1.115 -11.321,-52.867 -2.231,-62.024l79.475,0s12.269,34.944 20.678,52.254c6.547,13.44 16.373,45.216 22.7,66.72c6.263,21.234 -15.743,39.983 -35.663,30.179z" fill="#1f1f1f"/>
    <path id="Path_205" d="m300.42201,378.72301c-12.269,7.261 -66.129,4.305 -83.651,3.123l-4.774,-0.346c-0.513,0 0.078,-0.29 0.078,-0.29l0.491,-4.941l13.061,-33.193l69.932,-40.554c-1.417,4.272 -1.885,10.808 -1.773,18.292c0.323,24.047 6.636,57.909 6.636,57.909z" opacity="0.1"/>
    <path id="Path_206" d="m300.42201,377.08401c-12.269,7.261 -66.129,4.305 -83.651,3.123l-4.774,-0.335l-0.792,-0.067l0.87,-0.223l4.305,-1.115l9.246,-37.007l69.932,-40.543c-1.416,4.272 -1.885,10.808 -1.773,18.292c0.324,24.024 6.637,57.875 6.637,57.875z" fill="#dddddd"/>
    <path id="Path_207" d="m293.74101,319.18601c-14.221,3.279 -45.517,12.9 -57.541,36.137c-8.019,15.47 -14.767,22.106 -19.474,24.883l-4.774,-0.335a2.749,2.749 0 0 0 0.078,-0.29l4.305,-1.115l9.246,-37.007l69.932,-40.542c-1.4,4.249 -1.884,10.785 -1.772,18.269z" opacity="0.1"/>
    <path id="Path_208" d="m51.70101,330.831l16.329,9.793c-1.64,0.413 -3.736,2 -6.067,4.294c-1.361,-3.971 -9.9,-9.514 -13.786,-11.878c2.107,-1.417 3.524,-2.209 3.524,-2.209z" opacity="0.1"/>
    <path id="Path_209" d="m209.04201,380.508a0.97,0.97 0 0 1 -1.115,-0.156a3.87,3.87 0 0 0 1.115,0.156z" opacity="0.1"/>
    <path id="Path_210" d="m245.99401,215.99501s-14.7,1.628 -25.039,-9.257c0,0 -43.5,12.525 -58.232,40.821s-114.881,83.818 -114.881,83.818s17.422,9.793 15.782,14.689l65.861,-38.1s23.422,-16.864 29.925,-20.678s42.461,-27.214 50.079,36.461s0,56.057 0,56.057s10.886,3.815 26.668,-26.668s64.757,-37.554 64.757,-37.554l2.721,-32.1s9.715,-21.281 2.231,-30.114a18.961,18.961 0 0 1 -4.361,-9.213c-1.238,-8.153 0,-21.738 17.332,-33.025c26.668,-17.422 37.007,-31.564 37.007,-31.564s0.546,-10.35 -15.782,-15.247s-82.725,-31.564 -82.725,-31.564l-2.231,9.257l52.388,36.974s-26.121,21.191 -46.844,20.678c-0.001,0 3.847,15.782 -14.656,16.329z" fill="#b91c1c"/>
    <path id="Path_211" d="m256.07601,190.643a106.3,106.3 0 0 1 -3.011,-13.295l-28.843,7.62a31.621,31.621 0 0 1 -0.658,16.641a31.018,31.018 0 0 0 32.512,-10.966z" opacity="0.1"/>
    <circle id="Ellipse_10" cx="232.11901" cy="170.01" r="31.018" fill="#feb9b9"/>
    <path id="Path_213" d="m265.858,419.812s17.957,35.379 12.514,46.253" opacity="0.1"/>
    <path id="Path_221" d="m248.61401,98.37101c8.61,0.982 16.786,4.673 25.263,6.692a12.537,12.537 0 0 0 6.536,0.245c3.29,-1.015 5.967,-4.461 9.38,-4.361c2.1,0.067 3.959,1.495 5.688,2.866a69.968,69.968 0 0 1 7.807,6.96c5.844,6.346 9.469,14.89 14.8,21.794s12.934,15 20.507,11.834c-5.152,20.076 -21.221,32.635 -39.478,33.885c-7.283,0.5 -14.745,-1.015 -21.794,1.115a18.884,18.884 0 0 1 -5.5,1.338c-4.06,0 -7.328,-3.725 -9.86,-7.35c-5.934,-8.521 -10.629,-18.191 -17.31,-25.965c-2.231,-2.576 -4.807,-5.019 -7.93,-5.487s-5.989,1.026 -8.766,2.465c-4.584,2.376 -9.268,4.829 -12.826,8.923s-5.8,10.138 -4.328,15.615c0.792,2.967 2.6,5.644 2.632,8.744c0.067,4.952 -4.305,8.566 -5.164,13.384a50.184,50.184 0 0 0 -0.212,6.09c-0.379,6.6 -4.7,12 -9.2,16.161c-1.762,1.606 -3.7,3.346 -4.216,5.833c-0.346,1.706 0,3.5 -0.223,5.231c-0.658,4.283 -4.93,6.458 -8.711,7.016a25.128,25.128 0 0 1 -13.072,-1.55c5.287,-2.5 8.544,-9.614 7.317,-15.983c-1.684,-8.834 -10.562,-15.18 -9.8,-24.169a28,28 0 0 1 2.454,-7.952a72.856,72.856 0 0 0 4.194,-15.068c0.669,-3.982 0.993,-8.209 -0.257,-12.012c-1.115,-3.458 -3.446,-6.212 -5.421,-9.135a51.942,51.942 0 0 1 -6.279,-12.86a9.046,9.046 0 0 1 -0.6,-4.261a8.79,8.79 0 0 1 2.733,-4.406c4.852,-5.1 10.038,-10.395 16.541,-11.856a37.232,37.232 0 0 1 9.391,-0.357a110.84,110.84 0 0 0 16.317,-0.692c4.461,-0.524 12,-0.457 15.782,-3.346c3.524,-2.7 5.51,-6.09 9.848,-7.807a29,29 0 0 1 13.763,-1.573l-0.006,-0.001z" fill="#1f1f1f"/>
   </g>
  </g>
 </g>
</svg>