<svg width="100" height="125" viewBox="0 0 100 125" fill="none" xmlns="http://www.w3.org/2000/svg">
<mask id="myMask">
  <!-- Everything under a white pixel will be visible -->
  <rect x="0" y="0" width="100" height="100" fill="white" />
  <!-- Everything under a black pixel will be invisible -->
  <path d="M32.1 17.9V41.8C32.1 45.5 31.05 48.35 28.95 50.35C26.8833 52.35 24.0833 53.35 20.55 53.35C16.85 53.35 13.8833 52.3 11.65 50.2C9.41667 48.1 8.3 45.1167 8.3 41.25H16.8C16.8 42.7167 17.1 43.8333 17.7 44.6C18.3 45.3333 19.1667 45.7 20.3 45.7C21.3333 45.7 22.1333 45.3667 22.7 44.7C23.2667 44.0333 23.55 43.0667 23.55 41.8V17.9H32.1ZM51.7063 53.35C49.1396 53.35 46.8396 52.9333 44.8063 52.1C42.7729 51.2667 41.1396 50.0333 39.9063 48.4C38.7063 46.7667 38.0729 44.8 38.0063 42.5H47.1063C47.2396 43.8 47.6896 44.8 48.4563 45.5C49.2229 46.1667 50.2229 46.5 51.4563 46.5C52.7229 46.5 53.7229 46.2167 54.4563 45.65C55.1896 45.05 55.5563 44.2333 55.5563 43.2C55.5563 42.3333 55.2563 41.6167 54.6563 41.05C54.0896 40.4833 53.3729 40.0167 52.5063 39.65C51.6729 39.2833 50.4729 38.8667 48.9063 38.4C46.6396 37.7 44.7896 37 43.3563 36.3C41.9229 35.6 40.6896 34.5667 39.6563 33.2C38.6229 31.8333 38.1063 30.05 38.1063 27.85C38.1063 24.5833 39.2896 22.0333 41.6563 20.2C44.0229 18.3333 47.1063 17.4 50.9063 17.4C54.7729 17.4 57.8896 18.3333 60.2563 20.2C62.6229 22.0333 63.8896 24.6 64.0563 27.9H54.8063C54.7396 26.7667 54.3229 25.8833 53.5563 25.25C52.7896 24.5833 51.8063 24.25 50.6062 24.25C49.5729 24.25 48.7396 24.5333 48.1063 25.1C47.4729 25.6333 47.1563 26.4167 47.1563 27.45C47.1563 28.5833 47.6896 29.4667 48.7562 30.1C49.8229 30.7333 51.4896 31.4167 53.7563 32.15C56.0229 32.9167 57.8563 33.65 59.2563 34.35C60.6896 35.05 61.9229 36.0667 62.9563 37.4C63.9896 38.7333 64.5063 40.45 64.5063 42.55C64.5063 44.55 63.9896 46.3667 62.9563 48C61.9563 49.6333 60.4896 50.9333 58.5563 51.9C56.6229 52.8667 54.3396 53.35 51.7063 53.35ZM78.318 17.9V53H69.768V17.9H78.318Z" fill="black"/>
</mask>
<g clip-path="url(#clip0)">
<path d="M58.9743 61.8696C58.9073 61.0255 58.6247 60.2126 58.1534 59.5091C55.7708 59.9288 53.4474 61.0132 50.1852 61.0132C46.9229 61.0132 44.5996 59.9288 42.2169 59.5091C41.7457 60.2126 41.463 61.0255 41.3961 61.8696C41.3961 62.8112 41.4755 63.0076 41.8223 63.2469C44.431 62.0035 47.2963 61.3934 50.1852 61.4662C53.0741 61.3934 55.9394 62.0035 58.548 63.2469C58.8949 63.0076 58.9743 62.8112 58.9743 61.8696Z" fill="#b91c1c"/>
<path d="M50.2276 74.7829C52.1791 74.7829 53.7611 73.2009 53.7611 71.2494C53.7611 69.2979 52.1791 67.7159 50.2276 67.7159C48.2761 67.7159 46.6941 69.2979 46.6941 71.2494C46.6941 73.2009 48.2761 74.7829 50.2276 74.7829Z" fill="#b91c1c"/>
<path d="M50.125 14.168L1.62012 47.5381C1.62012 50.3097 23.3365 52.5564 50.125 52.5564C76.9134 52.5564 98.6298 50.3097 98.6298 47.5381L50.125 14.168Z" fill="#b91c1c" mask="url(#myMask)"/>
<path d="M50.2423 84.5483C50.0435 84.1729 49.9381 83.7551 49.9351 83.3304C49.8986 82.9174 49.8738 82.5027 49.8512 82.0876C49.8116 81.2571 49.7825 80.424 49.7872 79.5898C49.8015 78.2818 49.8558 76.9663 49.9759 75.6642C49.7174 75.6543 49.4602 75.6216 49.2073 75.5665C49.1082 76.9037 49.0256 78.2358 48.989 79.5753C48.9573 80.4203 48.9446 81.2669 48.951 82.1152C48.9561 82.5393 48.9634 82.9638 48.9829 83.3886C49.0317 83.8232 48.9926 84.2632 48.8679 84.6824C48.8242 84.8032 48.8117 84.9331 48.8315 85.06C48.8513 85.1869 48.9028 85.3068 48.9811 85.4086C49.0595 85.5104 49.1622 85.5908 49.2799 85.6424C49.3975 85.694 49.5263 85.7151 49.6543 85.7038C49.7822 85.6925 49.9053 85.6491 50.0121 85.5777C50.1188 85.5063 50.2059 85.4091 50.2652 85.2951C50.3245 85.1812 50.3541 85.0541 50.3513 84.9256C50.3485 84.7972 50.3134 84.6715 50.2492 84.5603L50.2423 84.5483Z" fill="#b91c1c" />
<path d="M54.038 83.6031C53.6918 83.3365 53.4307 82.9749 53.2863 82.5624C53.1063 82.1778 52.936 81.7884 52.7836 81.3907C52.4671 80.5983 52.1978 79.7879 51.9772 78.9636C51.7614 78.1371 51.5834 77.2995 51.4499 76.4551C51.4064 76.1577 51.3733 75.8566 51.3393 75.5562C51.0968 75.6118 50.8501 75.6467 50.6017 75.6607C50.6435 75.9636 50.6838 76.2663 50.7357 76.5692C50.8724 77.4364 51.0548 78.296 51.2763 79.1458C51.4842 80.0009 51.7377 80.8443 52.0357 81.6724C52.1807 82.0889 52.3446 82.4987 52.5194 82.9048C52.7392 83.3054 52.8669 83.75 52.8932 84.2062C52.8901 84.3297 52.9175 84.452 52.9729 84.5624C53.0284 84.6728 53.1103 84.7677 53.2112 84.8389C53.2913 84.8947 53.3816 84.9342 53.4769 84.9551C53.5723 84.976 53.6708 84.9779 53.7669 84.9608C53.863 84.9436 53.9548 84.9076 54.037 84.855C54.1192 84.8024 54.1902 84.7341 54.246 84.654C54.3018 84.5739 54.3413 84.4836 54.3622 84.3883C54.3831 84.2929 54.385 84.1944 54.3678 84.0983C54.3506 84.0022 54.3147 83.9104 54.2621 83.8282C54.2094 83.746 54.1411 83.675 54.061 83.6192L54.038 83.6031Z" fill="#b91c1c"/>
<path d="M62.1932 53.5713C63.1839 54.8978 64.5661 55.8798 66.1449 56.3785C65.6573 56.6315 64.8553 57.0331 64.1868 57.4586C63.6898 57.8127 63.2189 58.2022 62.7779 58.6239C62.747 58.6311 62.7155 58.6348 62.6838 58.635C62.5928 58.635 62.5044 58.6043 62.433 58.548C62.3615 58.4916 62.3112 58.4128 62.29 58.3242C61.8976 56.6797 61.2905 55.094 60.4844 53.6078C57.2716 53.6697 53.9548 53.703 50.5612 53.7051C50.5795 53.7506 50.5893 53.799 50.59 53.848V57.3906C50.59 57.498 50.5474 57.601 50.4714 57.6769C50.3955 57.7528 50.2925 57.7955 50.1852 57.7955C50.0778 57.7955 49.9748 57.7528 49.8989 57.6769C49.8229 57.601 49.7803 57.498 49.7803 57.3906V53.848C49.781 53.799 49.7908 53.7504 49.8091 53.7049C46.4453 53.7023 43.1569 53.6691 39.9711 53.6078C39.165 55.094 38.5579 56.6797 38.1655 58.3242C38.1444 58.4127 38.094 58.4916 38.0225 58.5479C37.9511 58.6043 37.8627 58.635 37.7717 58.635C37.74 58.6348 37.7085 58.6311 37.6776 58.6239C37.2366 58.2022 36.7657 57.8127 36.2687 57.4586C35.6002 57.0331 34.7983 56.6314 34.3107 56.3785C35.8894 55.8798 37.2716 54.8978 38.2623 53.5713C36.1242 53.5228 34.031 53.4631 32.0013 53.3901C31.9214 54.1722 32.0713 54.9608 32.4328 55.659C32.7942 56.3572 33.3515 56.9349 34.0363 57.3211C35.2256 57.9133 36.2505 58.7897 37.02 59.8727C37.7895 60.9557 38.2799 62.2119 38.4477 63.5299C38.7993 65.4638 41.0348 70.7629 45.9765 72.7378C45.717 72.0501 45.6282 71.3098 45.7177 70.5803C45.8071 69.8508 46.0723 69.1539 46.4903 68.5494C46.9083 67.9448 47.4667 67.4507 48.1177 67.1095C48.7686 66.7682 49.4926 66.5899 50.2276 66.5899C50.9626 66.59 51.6866 66.7683 52.3375 67.1096C52.9884 67.4509 53.5468 67.9451 53.9648 68.5496C54.3827 69.1542 54.6478 69.8511 54.7372 70.5806C54.8267 71.3101 54.7378 72.0505 54.4783 72.7381C59.4204 70.7634 61.6561 65.4639 62.0077 63.5299C62.1755 62.2119 62.6659 60.9557 63.4354 59.8727C64.2049 58.7897 65.2298 57.9133 66.4192 57.3211C67.104 56.9349 67.6612 56.3572 68.0227 55.659C68.3842 54.9608 68.5341 54.1722 68.4542 53.3901C66.4245 53.4631 64.3313 53.5228 62.1932 53.5713ZM58.5775 64.1885C56.4748 62.9603 53.4974 63.0861 50.1852 63.0861C46.873 63.0861 43.8955 62.9603 41.7929 64.1885C41.0264 63.6969 40.5864 63.5712 40.5864 61.8697C40.7354 60.6934 41.1896 59.5766 41.9039 58.6303C44.6328 59.1541 47.4065 59.4097 50.1852 59.3933C52.9646 59.4284 55.7402 59.1727 58.4664 58.6303C59.1807 59.5766 59.635 60.6934 59.784 61.8697C59.784 63.5712 59.344 63.6969 58.5775 64.1885Z" fill="#b91c1c" />
</g>
<defs>
<clipPath id="clip0">
<rect width="100" height="125" fill="white"/>
</clipPath>
</defs>
</svg>