<svg width="885.35758" height="482.80164" xmlns="http://www.w3.org/2000/svg">
 <title>next_tasks</title>

 <g>
  <title>background</title>
  <rect fill="none" id="canvas_background" height="602" width="802" y="-1" x="-1"/>
 </g>
 <g>
  <title>Layer 1</title>
  <path id="svg_2" fill="#0a0a0a" d="m833.78012,132.22448l-217.1052,0l0,-1.13682a3.3379,3.3379 0 0 0 -3.3379,-3.33791l-91.76814,0a3.3379,3.3379 0 0 0 -3.3379,3.33791l0,1.13682l-218.00014,0a14.68552,14.68552 0 0 0 -14.68553,14.68553l0,297.28381a14.68552,14.68552 0 0 0 14.68553,14.68553l533.54922,0a14.68559,14.68559 0 0 0 14.68559,-14.68558l0,-297.28376a14.68553,14.68553 0 0 0 -14.68553,-14.68553z"/>
  <path id="svg_3" fill="#fff" d="m311.90979,157.40082a1.69518,1.69518 0 0 0 -1.67578,1.70971l0,287.689a1.69518,1.69518 0 0 0 1.67578,1.70971l510.19088,0a1.69519,1.69519 0 0 0 1.67578,-1.70971l0,-287.689a1.69519,1.69519 0 0 0 -1.67578,-1.70971l-510.19088,0z"/>
  <circle id="svg_4" fill="#b91c1c" r="5.36967" cy="144.75371" cx="566.558"/>
  <path id="svg_5" fill="#0a0a0a" d="m858.24339,438.8434l-51.09437,0l0,-5.27658c0,-0.2898 -0.32678,-0.52471 -0.72992,-0.52471l-17.51807,0c-0.40314,0 -0.72992,0.23491 -0.72992,0.52471l0,5.27661l-10.94879,0l0,-5.27661c0,-0.2898 -0.32678,-0.52471 -0.72992,-0.52471l-17.51807,0c-0.40314,0 -0.72992,0.23491 -0.72992,0.52471l0,5.27661l-10.94879,0l0,-5.27661c0,-0.2898 -0.32678,-0.52471 -0.72992,-0.52471l-17.51807,0c-0.40314,0 -0.72992,0.23491 -0.72992,0.52471l0,5.27661l-10.9488,0l0,-5.27661c0,-0.2898 -0.32678,-0.52471 -0.72992,-0.52471l-17.51807,0c-0.40314,0 -0.72992,0.23491 -0.72992,0.52471l0,5.27661l-10.94879,0l0,-5.27661c0,-0.2898 -0.32678,-0.52471 -0.72992,-0.52471l-17.51807,0c-0.40314,0 -0.72992,0.23491 -0.72992,0.52471l0,5.27661l-10.94879,0l0,-5.27661c0,-0.2898 -0.32678,-0.52471 -0.72992,-0.52471l-17.51807,0c-0.40314,0 -0.72992,0.23491 -0.72992,0.52471l0,5.27661l-10.94881,0l0,-5.27661c0,-0.2898 -0.32678,-0.52471 -0.72992,-0.52471l-137.22487,0c-0.40314,0 -0.72992,0.23491 -0.72992,0.52471l0,5.27661l-10.94879,0l0,-5.27661c0,-0.2898 -0.32678,-0.52471 -0.72992,-0.52471l-17.51807,0c-0.40314,0 -0.72992,0.23491 -0.72992,0.52471l0,5.27661l-10.9488,0l0,-5.27661c0,-0.2898 -0.32678,-0.52471 -0.72992,-0.52471l-17.51807,0c-0.40314,0 -0.72992,0.23491 -0.72992,0.52471l0,5.27661l-10.94879,0l0,-5.27661c0,-0.2898 -0.32678,-0.52471 -0.72992,-0.52471l-17.51807,0c-0.40314,0 -0.72992,0.23491 -0.72992,0.52471l0,5.27661l-10.94879,0l0,-5.27661c0,-0.2898 -0.32678,-0.52471 -0.72992,-0.52471l-17.51807,0c-0.40314,0 -0.72992,0.23491 -0.72992,0.52471l0,5.27661l-10.9488,0l0,-5.27661c0,-0.2898 -0.32678,-0.52471 -0.72992,-0.52471l-17.51807,0c-0.40314,0 -0.72992,0.23491 -0.72992,0.52471l0,5.27661l-10.94877,0l0,-5.27661c0,-0.2898 -0.32678,-0.52471 -0.72992,-0.52471l-17.51808,0c-0.40314,0 -0.72992,0.23491 -0.72992,0.52471l0,5.27661l-33.5763,0c-9.675,0 -17.51807,5.63812 -17.51807,12.59307l0,5.69429c0,6.95493 7.84312,12.593 17.51807,12.593l582.47582,0c9.675,0 17.51807,-5.63811 17.51807,-12.593l0,-5.69429c0,-6.95498 -7.84311,-12.5931 -17.51807,-12.5931z"/>
  <rect id="svg_6" fill="#e6e6e6" rx="3.56223" height="186.42335" width="193.54781" y="213.83697" x="573.5064"/>
  <path id="svg_7" fill="#ffb8b8" d="m171.11421,45.58782a120.05771,120.05771 0 0 1 -1.38984,25.0173s-9.729,22.2376 1.38984,31.96655s31.96658,-29.18685 31.96658,-29.18685c-1.44213,-8.63449 -2.27341,-16.75137 0,-22.23758l-31.96658,-5.55942z"/>
  <path id="svg_8" fill="#ffb8b8" d="m186.40257,317.99849l0,30.57671s-4.16956,56.98385 0,70.88235l-1.38986,26.40716l15.28836,0l4.16955,-31.96656s12.50865,-40.30565 8.3391,-65.32295l2.7797,-30.57671l-29.18685,0z"/>
  <path id="svg_9" fill="#ffb8b8" d="m164.16496,317.99849l0,30.57671s4.16955,56.98385 0,70.88235l1.38985,26.40716l-15.28835,0l-4.16955,-31.96656s-12.50865,-40.30565 -8.3391,-65.32295l-2.7797,-30.57671l29.18685,0z"/>
  <path id="svg_10" fill="#0a0a0a" d="m128.72379,203.33582s-8.3391,52.81431 -2.7797,83.391s5.5594,40.30566 5.5594,40.30566l34.74626,-1.38985l9.72894,-56.98381l8.3391,58.37371l41.69551,-6.94925s0,-44.47521 1.38985,-54.20416s1.38985,-65.323 1.38985,-65.323l-100.06921,2.7797z"/>
  <path id="svg_11" fill="#0a0a0a" d="m203.08079,445.86471s-15.28835,-9.72895 -22.23761,0l0,16.6782s-5.5594,12.50865 13.89851,9.72895s12.50865,-12.50865 12.50865,-12.50865l-4.16955,-13.8985z"/>
  <path id="svg_12" fill="#0a0a0a" d="m147.48679,445.86471s15.28835,-9.72895 22.2376,0l0,16.6782s5.5594,12.50865 -13.8985,9.72895s-12.50865,-12.50865 -12.50865,-12.50865l4.16955,-13.8985z"/>
  <circle id="svg_13" fill="#ffb8b8" r="22.2376" cy="37.24875" cx="189.18227"/>
  <path id="svg_14" fill="#b91c1c" d="m179.45331,90.06306l-9.5603,-22.49362l-9.8976,4.42557l-12.50862,72.27221l1.38985,69.49251s63.93311,-2.7797 72.27221,1.38985s-9.72895,-136.20532 -9.72895,-136.20532l-8.3391,-10.402l-23.62749,21.5208z"/>
  <path id="svg_15" fill="#0a0a0a" d="m171.40238,59.48636s-21.13592,5.5594 -21.13592,13.8985c0,0 -20.84775,4.16955 -20.84775,8.3391s-1.38985,109.79817 -1.38985,109.79817s-12.50865,23.62745 -2.7797,43.08535l-1.38985,11.1188l27.797,2.7797l19.4579,-170.95157l0.28817,-18.06805z"/>
  <path id="svg_16" fill="#0a0a0a" d="m201.40279,59.48636s21.13592,5.5594 21.13592,13.8985c0,0 20.84775,4.16955 20.84775,8.3391s1.38985,109.79817 1.38985,109.79817s12.50865,23.62745 2.7797,43.08535l1.38985,11.1188l-27.797,2.7797l-19.4579,-170.95157l-0.28817,-18.06805z"/>
  <path id="svg_17" fill="#0a0a0a" d="m207.25032,8.0619s1.38985,-5.5594 -5.5594,-2.7797c0,0 -8.3391,-9.72895 -16.67821,-2.7797c0,0 -16.6782,-2.7797 -16.6782,11.1188s-0.78617,18.48769 -0.78617,18.48769s4.95572,-12.92829 14.68467,-11.53844c5.94547,0.84936 9.2957,0.14156 11.00227,-0.5374a8.34194,8.34194 0 0 1 5.82353,-0.2762a9.06027,9.06027 0 0 1 5.41181,4.98315a41.764,41.764 0 0 0 3.01261,5.69795a35.28567,35.28567 0 0 1 3.91266,7.78426l0,0l2.80368,-16.26192s1.38985,-8.3391 -2.7797,-11.1188c0,0.00001 1.38985,-4.16954 -4.16955,-2.77969z"/>
  <rect id="svg_18" fill="#b91c1c" height="121.93548" width="374.28889" y="244.93126" x="255.25115"/>
  <path id="svg_19" fill="#ffb8b8" d="m103.70648,226.9633s-8.3391,31.96656 4.16955,29.18686s9.72895,-30.57671 9.72895,-30.57671l-13.8985,1.38985z"/>
  <path id="svg_20" fill="#ffb8b8" d="m269.09865,226.9633s8.3391,31.96656 -4.16955,29.18686s-9.72895,-30.57671 -9.72895,-30.57671l13.8985,1.38985z"/>
  <path id="svg_21" fill="#0a0a0a" d="m136.36796,81.72396l-3.8363,-2.98642s-4.5028,0.20672 -5.89265,2.98642s-23.62746,72.27221 -23.62746,72.27221s-6.94925,36.13611 -2.7797,58.37371l1.38985,16.6782l19.45791,0l-1.38982,-26.40715l13.8985,-52.81431l2.77967,-68.10266z"/>
  <path id="svg_22" fill="#0a0a0a" d="m236.43717,81.72396l3.8363,-2.98642s4.5028,0.20672 5.89265,2.98642s23.62746,72.27221 23.62746,72.27221s6.94925,36.13611 2.7797,58.37371l-1.38985,16.6782l-19.45791,0l1.38985,-26.40715l-13.8985,-52.81431l-2.7797,-68.10266z"/>
  <rect id="svg_23" fill="#fff" height="21.20617" width="21.20617" y="260.30573" x="327.88228"/>
  <rect id="svg_24" fill="#fff" height="2.12062" width="170.70967" y="269.84851" x="386.19925"/>
  <rect id="svg_25" fill="#fff" height="21.20617" width="21.20617" y="295.29591" x="327.88228"/>
  <rect id="svg_26" fill="#fff" height="2.12062" width="170.70967" y="304.83869" x="386.19925"/>
  <rect id="svg_27" fill="#fff" height="21.20617" width="21.20617" y="330.28609" x="327.88228"/>
  <rect id="svg_28" fill="#fff" height="2.12062" width="170.70967" y="339.82887" x="386.19925"/>
 </g>
</svg>