<?xml version="1.0" standalone="no"?>
<!DOCTYPE svg PUBLIC "-//W3C//DTD SVG 20010904//EN"
 "http://www.w3.org/TR/2001/REC-SVG-20010904/DTD/svg10.dtd">
<svg version="1.0" xmlns="http://www.w3.org/2000/svg"
 width="1000.000000pt" height="1000.000000pt" viewBox="0 0 1000.000000 1000.000000"
 preserveAspectRatio="xMidYMid meet">
<metadata>
Created by potrace 1.11, written by Peter Selinger 2001-2013
</metadata>
<g transform="translate(0.000000,1000.000000) scale(0.100000,-0.100000)"
fill="#000000" stroke="none">
<path d="M4920 8805 c-41 -30 -82 -58 -90 -62 -8 -3 -27 -16 -42 -27 -47 -37
-77 -57 -84 -55 -4 0 -10 -3 -13 -8 -3 -5 -35 -29 -71 -54 -36 -24 -67 -46
-70 -49 -3 -3 -39 -27 -80 -55 -41 -27 -121 -83 -178 -122 -56 -40 -107 -73
-112 -73 -6 0 -10 -3 -10 -8 0 -4 -25 -22 -55 -40 -30 -18 -55 -38 -55 -44 0
-6 -3 -9 -6 -5 -3 3 -11 1 -18 -4 -6 -6 -56 -41 -111 -79 -205 -141 -357 -245
-373 -255 -9 -5 -21 -14 -26 -18 -48 -36 -137 -97 -163 -112 -18 -11 -33 -23
-33 -27 0 -4 -6 -8 -13 -8 -8 0 -22 -9 -32 -20 -10 -11 -24 -20 -32 -20 -7 0
-13 -4 -13 -10 0 -5 -6 -10 -14 -10 -8 0 -16 -4 -18 -8 -4 -10 -137 -102 -148
-102 -4 0 -10 -4 -12 -8 -1 -5 -68 -53 -148 -107 -133 -91 -193 -131 -322
-222 -26 -18 -52 -33 -57 -33 -5 0 -11 -4 -13 -8 -4 -11 -267 -192 -278 -192
-4 0 -10 -7 -14 -15 -3 -8 -10 -15 -15 -15 -6 0 -52 -29 -103 -65 -51 -36
-100 -70 -108 -76 -114 -77 -248 -170 -257 -178 -7 -6 -16 -11 -21 -11 -5 0
-17 -9 -27 -20 -10 -11 -22 -20 -27 -20 -5 0 -14 -5 -21 -10 -7 -6 -43 -32
-82 -60 -38 -27 -76 -54 -82 -60 -7 -6 -13 -8 -13 -5 0 4 -6 0 -14 -7 -7 -7
-22 -19 -32 -26 -202 -137 -279 -191 -282 -201 -7 -20 57 -69 126 -95 69 -27
239 -73 302 -82 19 -3 43 -7 52 -10 22 -7 45 -11 98 -18 25 -3 54 -8 65 -10
33 -6 117 -18 155 -22 19 -1 35 -4 35 -5 0 -1 14 -3 30 -4 17 -1 50 -5 75 -9
25 -3 68 -9 95 -12 28 -3 64 -7 80 -9 17 -1 64 -6 105 -10 41 -4 91 -9 110
-11 41 -4 172 -14 250 -19 30 -2 82 -6 115 -9 126 -10 273 -19 350 -21 44 -2
80 -4 80 -5 0 -1 41 -3 90 -5 50 -2 142 -6 205 -9 225 -11 854 -29 905 -26 11
1 27 1 35 0 26 -1 1014 -2 1045 -1 17 1 37 1 45 1 44 -3 666 16 890 26 63 3
142 6 175 8 34 1 66 5 72 9 6 4 14 3 17 -2 3 -5 21 -5 41 -1 21 5 35 4 35 -2
0 -5 5 -6 12 -2 6 4 27 8 47 9 167 9 283 17 323 21 26 2 82 6 125 9 111 8 179
13 248 20 77 8 135 13 207 20 32 2 70 7 85 9 15 3 55 8 88 11 33 4 71 8 85 10
14 2 45 7 70 10 25 3 72 10 105 15 33 5 78 12 100 15 22 4 47 8 55 10 8 3 32
7 54 11 46 7 50 8 146 29 41 9 91 22 110 30 19 7 37 13 40 13 37 4 150 62 166
87 16 25 16 27 -3 43 -10 9 -27 22 -36 27 -27 16 -292 198 -297 204 -3 3 -12
11 -21 16 -10 6 -50 33 -90 60 -41 28 -132 90 -204 139 -71 49 -135 95 -142
103 -6 8 -13 13 -16 11 -5 -3 -106 65 -132 90 -7 6 -17 12 -22 12 -7 0 -106
71 -140 100 -7 5 -14 10 -17 10 -8 0 -141 94 -144 102 -2 4 -10 8 -18 8 -8 0
-14 5 -14 10 0 6 -5 10 -11 10 -5 0 -30 15 -54 33 -24 17 -80 57 -125 87 -45
30 -87 60 -94 65 -6 6 -19 15 -29 20 -23 14 -327 223 -352 242 -6 4 -60 42
-120 83 -61 41 -114 78 -120 82 -5 5 -46 33 -90 62 -44 30 -132 90 -195 133
-63 42 -117 80 -120 83 -3 3 -54 39 -115 80 -60 41 -111 77 -113 82 -2 4 -8 8
-13 8 -10 0 -60 34 -93 63 -11 9 -25 17 -32 17 -7 0 -14 4 -16 8 -1 4 -61 48
-133 97 -219 151 -367 253 -425 292 -30 20 -56 40 -58 45 -2 4 -8 8 -12 8 -8
0 -181 116 -207 139 -31 27 -58 20 -133 -34z"/>
<path d="M3557 5716 c-3 -8 -3 -16 0 -19 3 -3 6 -25 8 -49 3 -43 42 -138 57
-138 4 0 8 -5 8 -10 0 -17 52 -63 101 -89 72 -39 149 -102 201 -164 26 -32 48
-62 48 -67 0 -5 6 -15 13 -22 29 -29 81 -191 79 -245 0 -5 4 -13 8 -18 5 -6
12 -26 15 -44 6 -37 31 -98 72 -176 40 -76 48 -90 53 -95 3 -3 22 -30 42 -60
61 -89 184 -211 256 -253 21 -12 39 -24 42 -27 3 -3 29 -17 58 -32 l54 -27 -8
52 c-21 144 10 243 107 337 50 50 117 86 179 97 33 6 129 5 151 -2 151 -46
255 -162 275 -306 5 -30 7 -58 6 -62 -1 -4 -4 -22 -6 -40 -3 -18 -8 -40 -11
-49 -11 -29 15 -22 102 30 109 63 161 107 258 217 61 70 175 258 175 290 0 8
5 15 12 15 6 0 9 3 5 6 -3 4 0 18 7 33 13 26 34 101 43 155 14 85 83 238 127
282 8 8 23 24 33 36 19 24 77 75 109 95 10 7 46 30 79 51 103 66 163 165 161
267 l-1 40 -145 -3 c-309 -5 -350 -7 -350 -13 0 -13 98 -103 153 -141 32 -22
81 -49 108 -61 l51 -20 -54 -26 c-29 -14 -55 -28 -58 -31 -3 -3 -17 -11 -32
-19 -16 -8 -28 -18 -28 -23 0 -4 -6 -8 -14 -8 -8 0 -16 -3 -18 -7 -2 -5 -17
-21 -35 -36 -26 -24 -34 -27 -52 -18 -12 7 -21 19 -21 29 -1 9 -8 35 -16 57
-8 22 -17 51 -20 65 -5 26 -47 129 -67 165 -6 11 -17 32 -24 47 l-14 28 -395
-3 c-386 -2 -394 -2 -395 -22 0 -11 -2 -78 -3 -150 -3 -158 -12 -187 -49 -151
-11 11 -14 47 -13 165 1 83 -1 151 -4 152 -3 0 -181 3 -396 5 l-392 4 -42 -97
c-23 -54 -45 -107 -50 -118 -4 -11 -19 -55 -31 -99 -13 -43 -29 -80 -36 -83
-6 -3 -43 20 -80 49 -37 30 -98 69 -135 88 -70 36 -71 45 -8 65 40 12 127 72
182 123 80 76 80 77 -20 79 -48 0 -160 4 -248 7 -135 5 -163 4 -167 -8z m848
-416 c22 -5 60 -11 85 -14 25 -3 55 -8 66 -10 96 -19 682 -29 804 -13 25 3 72
8 105 12 33 3 93 13 134 20 40 8 78 12 83 9 10 -6 56 -93 76 -144 17 -43 25
-182 12 -216 -19 -48 -82 -89 -104 -66 -4 4 -11 7 -14 8 -4 0 -19 6 -35 12
-31 13 -52 18 -152 36 -91 17 -117 18 -450 18 -292 1 -427 -6 -483 -21 -17 -5
-32 -8 -32 -6 0 2 -16 -3 -35 -11 -19 -8 -37 -14 -40 -14 -3 0 -22 -7 -42 -15
-44 -18 -61 -14 -99 26 -28 29 -29 34 -28 122 0 53 6 105 14 122 7 17 14 32
15 35 13 39 63 120 74 120 3 0 24 -5 46 -10z"/>
<path d="M4380 5233 c-25 -6 -63 -119 -66 -195 -2 -59 0 -70 18 -82 19 -13 25
-13 61 5 21 11 47 22 56 24 9 2 43 13 76 25 128 45 269 69 433 73 39 1 72 -2
72 -7 0 -4 6 -4 13 1 6 5 30 9 52 7 69 -5 151 -13 186 -19 54 -9 82 -14 109
-20 44 -9 214 -67 252 -86 48 -25 51 -24 65 9 23 53 2 182 -40 245 -22 32 -2
34 -240 -28 -193 -50 -246 -59 -349 -60 -38 0 -68 -3 -68 -6 0 -3 -12 -5 -27
-3 -16 2 -53 6 -83 9 -30 3 -80 11 -110 17 -30 6 -64 12 -75 14 -20 3 -36 7
-150 39 -99 27 -169 41 -185 38z"/>
<path d="M4990 4580 c-30 -4 -75 -17 -100 -30 -41 -21 -99 -72 -109 -96 -2 -5
-10 -18 -17 -29 -11 -18 -31 -112 -29 -140 4 -46 22 -98 52 -142 19 -29 38
-53 42 -53 4 0 16 -8 27 -18 46 -42 143 -64 214 -49 94 19 177 89 210 177 12
32 19 64 15 69 -3 6 -1 11 5 11 6 0 8 5 5 10 -4 6 -8 29 -10 52 -11 108 -107
212 -215 233 -11 2 -23 6 -28 8 -4 2 -32 0 -62 -3z"/>
<path d="M4939 3952 c0 -4 -2 -18 -4 -32 -7 -57 -18 -318 -21 -505 -2 -110 -4
-209 -4 -219 -2 -37 41 -58 88 -42 12 4 22 10 23 14 0 4 2 16 4 26 2 11 -3 36
-11 55 -9 20 -18 74 -22 121 -7 96 -7 386 -1 499 4 74 4 74 -23 82 -16 4 -28
4 -29 1z"/>
<path d="M5067 3949 c-20 -12 -17 -52 12 -179 5 -25 12 -56 14 -70 3 -14 10
-37 16 -52 6 -16 8 -28 5 -28 -4 0 -1 -7 6 -15 7 -8 10 -15 7 -15 -7 0 44
-151 72 -214 13 -27 25 -65 28 -85 10 -79 40 -103 93 -76 41 21 41 61 -1 101
-27 25 -51 68 -99 179 -28 64 -83 258 -94 330 -2 17 -5 31 -6 33 -3 3 -7 35
-9 66 -1 28 -20 38 -44 25z"/>
</g>
</svg>
